<?xml version="1.0" encoding="UTF-8" standalone="no"?>
<svg
   height="24px"
   viewBox="0 -960 960 960"
   width="24px"
   fill="#5f6368"
   version="1.1"
   id="svg1"
   sodipodi:docname="favicon.svg"
   inkscape:version="1.3.2 (091e20e, 2023-11-25, custom)"
   xmlns:inkscape="http://www.inkscape.org/namespaces/inkscape"
   xmlns:sodipodi="http://sodipodi.sourceforge.net/DTD/sodipodi-0.dtd"
   xmlns="http://www.w3.org/2000/svg"
   xmlns:svg="http://www.w3.org/2000/svg">
  <defs
     id="defs1" />
  <sodipodi:namedview
     id="namedview1"
     pagecolor="#ffffff"
     bordercolor="#000000"
     borderopacity="0.25"
     inkscape:showpageshadow="2"
     inkscape:pageopacity="0.0"
     inkscape:pagecheckerboard="0"
     inkscape:deskcolor="#d1d1d1"
     inkscape:zoom="33.875"
     inkscape:cx="11.98524"
     inkscape:cy="12"
     inkscape:window-width="1920"
     inkscape:window-height="1009"
     inkscape:window-x="-8"
     inkscape:window-y="-8"
     inkscape:window-maximized="1"
     inkscape:current-layer="svg1" />
  <path
     d="M296-270q-42 35-87.5 32T129-269q-34-28-46.5-73.5T99-436l75-124q-25-22-39.5-53T120-680q0-66 47-113t113-47q66 0 113 47t47 113q0 66-47 113t-113 47q-9 0-18-1t-17-3l-77 130q-11 18-7 35.5t17 28.5q13 11 31 12.5t35-12.5l420-361q42-35 88-31.5t80 31.5q34 28 46 73.5T861-524l-75 124q25 22 39.5 53t14.5 67q0 66-47 113t-113 47q-66 0-113-47t-47-113q0-66 47-113t113-47q9 0 17.5 1t16.5 3l78-130q11-18 7-35.5T782-630q-13-11-31-12.5T716-630L296-270Zm384 70q33 0 56.5-23.5T760-280q0-33-23.5-56.5T680-360q-33 0-56.5 23.5T600-280q0 33 23.5 56.5T680-200ZM280-600q33 0 56.5-23.5T360-680q0-33-23.5-56.5T280-760q-33 0-56.5 23.5T200-680q0 33 23.5 56.5T280-600Zm400 320ZM280-680Z"
     id="path1"
     style="fill:#008000" />
</svg>
